<svg xmlns="http://www.w3.org/2000/svg" version="1.1" xmlns:xlink="http://www.w3.org/1999/xlink" xmlns:svgjs="http://svgjs.com/svgjs" width="1440" height="560" preserveAspectRatio="none" viewBox="0 0 1440 560"><g mask="url(&quot;#SvgjsMask4051&quot;)" fill="none"><rect width="1440" height="560" x="0" y="0" fill="url(#SvgjsLinearGradient4052)"></rect><path d="M336.1 664.77C501.24 658.87 636.45 397.26 940.46 397.06 1244.47 396.86 1390.04 530.65 1544.82 531.46" stroke="rgba(139, 94, 60, 1)" stroke-width="2"></path><path d="M622.23 628.11C720.05 601.16 653.67 350.45 896.46 328.92 1139.25 307.39 1296.88 109.18 1444.93 104.92" stroke="rgba(139, 94, 60, 1)" stroke-width="2"></path><path d="M350.37 603.82C516.9 549.28 545.95 78.69 798.43 64.8 1050.9 50.91 1022.46 134.8 1246.48 134.8 1470.51 134.8 1581.17 65.01 1694.54 64.8" stroke="rgba(139, 94, 60, 1)" stroke-width="2"></path><path d="M543.53 561.94C716.89 510.84 766.2 25.97 1021.97 19.95 1277.74 13.93 1372.72 196.24 1500.41 199.15" stroke="rgba(139, 94, 60, 1)" stroke-width="2"></path><path d="M642.38 649.14C793.34 608.41 842.95 194.46 1067.6 190.48 1292.25 186.5 1378.56 355.47 1492.82 358.48" stroke="rgba(139, 94, 60, 1)" stroke-width="2"></path></g><defs><mask id="SvgjsMask4051"><rect width="1440" height="560" fill="#ffffff"></rect></mask><linearGradient x1="84.72%" y1="139.29%" x2="15.28%" y2="-39.29%" gradientUnits="userSpaceOnUse" id="SvgjsLinearGradient4052"><stop stop-color="rgba(255, 255, 255, 1)" offset="0.3"></stop><stop stop-color="rgba(255, 207, 157, 1)" offset="1"></stop></linearGradient></defs></svg>